<?xml version="1.0"?>
<svg xmlns:svg="http://www.w3.org/2000/svg"
  xmlns="http://www.w3.org/2000/svg" viewBox="0 0 60.925076 49.606236" version="1.1">
  <g inkscape:label="Layer 1" inkscape:groupmode="layer" transform="translate(-121.12335,-141.06813)">
    <g transform="matrix(0.35277777,0,0,-0.35277777,85.117794,219.97852)" inkscape:label="JSC_NIIAS">
      <path inkscape:connector-curvature="0" style="fill:#ee2922;fill-opacity:1;fill-rule:nonzero;stroke:none" d="M 274.764,117.418 H 102.063 v 106.265 h 172.701 z" />
      <g
         >
        <g clip-path="url(#clipPath993)">
          <g transform="translate(212.9219,192.4141)">
            <path inkscape:connector-curvature="0" style="fill:#ffffff;fill-opacity:1;fill-rule:nonzero;stroke:none" d="m 0,0 v -1.93 h 16.619 c 1.102,0 2.768,0 3.873,-1.112 1.104,-1.106 1.104,-2.766 1.104,-3.878 v -16.602 c 0,-1.102 0,-2.771 -1.104,-3.874 -1.105,-1.106 -2.771,-1.106 -3.873,-1.106 H 8.592 c -1.385,0 -3.188,0 -3.877,1.525 -0.694,1.52 0.275,2.903 1.107,4.012 L 16.619,-8.586 H 0 l -6.635,-8.852 c -1.109,-1.482 -2.072,-2.766 -2.072,-4.422 0,-1.662 0.887,-2.863 2.072,-4.433 l 1.67,-2.209 c 1.647,-2.211 3.315,-4.43 5.527,-5.534 2.219,-1.105 4.842,-1.105 8.444,-1.105 h 7.199 c 4.149,0 10.383,0 14.529,4.147 4.153,4.154 4.153,10.237 4.153,12.459 v 6.639 c 0,2.213 0,8.302 -4.153,12.448 -4.146,4.149 -10.38,4.149 -14.529,4.149 H 4.715 c -1.106,0 -2.49,0 -3.592,-1.101 C 0,2.49 0,1.109 0,0" />
          </g>
          <g transform="translate(193.0039,183.8281)">
            <path inkscape:connector-curvature="0" style="fill:#ffffff;fill-opacity:1;fill-rule:nonzero;stroke:none" d="M 0,0 H 16.6 L -3.32,-26.564 h -16.606 z" />
          </g>
          <g transform="translate(128.2441,179.1357)">
            <path inkscape:connector-curvature="0" style="fill:#ffffff;fill-opacity:1;fill-rule:nonzero;stroke:none" d="m 0,0 c 0,1.102 0,2.487 1.105,3.594 1.11,1.099 2.489,1.099 3.6,1.099 h 27.813 c 3.593,0 6.23,0 8.439,-1.099 2.217,-1.107 3.875,-3.323 5.545,-5.534 l 1.652,-2.219 c 1.176,-1.569 2.078,-2.766 2.078,-4.425 0,-1.661 -0.962,-2.945 -2.078,-4.433 l -6.64,-8.854 H 24.902 l 10.795,14.394 c 0.838,1.102 1.803,2.487 1.114,4.017 -0.7,1.52 -2.493,1.52 -3.885,1.52 H 19.928 V -35.147 H 6.643 V -1.94 H 0 Z" />
          </g>
          <g transform="translate(132.1387,87.3672)">
            <path inkscape:connector-curvature="0" style="fill:#231f20;fill-opacity:1;fill-rule:nonzero;stroke:none" d="m 0,0 2.736,0.684 c 0.635,-2.541 0.635,-2.541 1.954,-2.541 2.345,0 2.345,0 2.345,2.638 V 13.387 H 9.674 V 1.367 C 9.674,-1.564 9.674,-4.3 4.69,-4.3 0,-4.3 0,-0.685 0,0" />
          </g>
          <g transform="translate(152.0254,93.2539)">
            <path inkscape:connector-curvature="0" style="fill:#231f20;fill-opacity:1;fill-rule:nonzero;stroke:none" d="m 0,0 c 2.346,-0.586 4.788,-1.147 4.788,-4.959 0,-1.612 0,-5.228 -5.667,-5.228 -0.88,0 -1.954,0 -5.277,0.831 v 2.541 h 0.733 l 3.127,-0.783 h 1.71 c 2.639,0 2.639,0 2.639,2.493 0,1.783 0,1.783 -1.759,2.222 l -2.346,0.587 c -2.344,0.586 -4.788,1.149 -4.788,4.959 0,1.612 0,5.228 5.668,5.228 0.879,0 1.954,0 5.276,-0.83 V 4.52 H 3.371 L 0.244,5.302 h -1.71 c -2.638,0 -2.638,0 -2.638,-2.492 0,-1.784 0,-1.784 1.759,-2.223 z" />
          </g>
          <g transform="translate(169.2256,95.0371)">
            <path inkscape:connector-curvature="0" style="fill:#231f20;fill-opacity:1;fill-rule:nonzero;stroke:none" d="m 0,0 c -0.88,3.519 -0.88,3.519 -3.469,3.519 -3.224,0 -3.224,0 -3.224,-6.01 v -0.88 c 0,-6.01 0,-6.01 3.81,-6.01 h 0.978 l 3.127,0.782 h 0.879 v -2.541 c -3.323,-0.83 -4.691,-0.83 -5.57,-0.83 -6.156,0 -6.156,4.201 -6.156,8.306 v 1.466 c 0,3.81 0,8.305 5.863,8.305 h 0.586 c 5.717,0 5.717,-3.81 5.717,-5.471 z" />
          </g>
          <g transform="translate(196.5566,86.6826)">
            <path inkscape:connector-curvature="0" style="fill:#231f20;fill-opacity:1;fill-rule:nonzero;stroke:none" d="M 0,0 V 14.071 H 2.492 V -3.225 H -1.319 C -5.862,5.863 -7.036,8.208 -7.036,10.847 H -7.915 V -3.225 h -2.491 v 17.296 h 3.81 C -2.052,4.983 -0.88,2.639 -0.88,0 Z" />
          </g>
          <path inkscape:connector-curvature="0" style="fill:#231f20;fill-opacity:1;fill-rule:nonzero;stroke:none" d="m 203.839,100.754 h 2.639 V 83.458 h -2.639 z" />
          <path inkscape:connector-curvature="0" style="fill:#231f20;fill-opacity:1;fill-rule:nonzero;stroke:none" d="m 211.267,100.754 h 2.638 V 83.458 h -2.638 z" />
          <g transform="translate(223.3838,98.4092)">
            <path inkscape:connector-curvature="0" style="fill:#231f20;fill-opacity:1;fill-rule:nonzero;stroke:none" d="M 0,0 C 0,-2.199 -0.733,-4.397 -2.053,-8.355 H 3.518 C 2.198,-4.397 1.465,-2.199 1.465,0 Z m 2.736,2.345 5.472,-16.416 v -0.88 H 5.716 l -1.466,4.397 h -7.035 l -1.466,-4.397 h -2.492 v 0.88 l 5.472,16.416 z" />
          </g>
          <g transform="translate(239.8994,93.2539)">
            <path inkscape:connector-curvature="0" style="fill:#231f20;fill-opacity:1;fill-rule:nonzero;stroke:none" d="m 0,0 c 2.346,-0.586 4.788,-1.147 4.788,-4.959 0,-1.612 0,-5.228 -5.667,-5.228 -0.88,0 -1.955,0 -5.277,0.831 v 2.541 h 0.732 l 3.127,-0.783 h 1.711 c 2.639,0 2.639,0 2.639,2.493 0,1.783 0,1.783 -1.76,2.222 l -2.345,0.587 c -2.344,0.586 -4.788,1.149 -4.788,4.959 0,1.612 0,5.228 5.668,5.228 0.879,0 1.953,0 5.276,-0.83 V 4.52 H 3.371 L 0.244,5.302 h -1.71 c -2.638,0 -2.638,0 -2.638,-2.492 0,-1.784 0,-1.784 1.758,-2.223 z" />
          </g>
        </g>
      </g>
    </g>
  </g>
</svg>
